<svg xmlns="http://www.w3.org/2000/svg" width="800" height="600" viewBox="0 0 800 600">
  <rect width="800" height="600" rx="36" fill="#fff7ed"/>
  <circle cx="400" cy="300" r="240" fill="#fde68a"/>
  <rect x="250" y="180" width="300" height="220" rx="80" fill="#f59e0b"/>
  <rect x="290" y="230" width="220" height="150" rx="50" fill="#ffffff" opacity="0.95"/>
  <circle cx="350" cy="290" r="16" fill="#111827"/>
  <circle cx="450" cy="290" r="16" fill="#111827"/>
  <path d="M370 335c20 35 60 35 80 0" stroke="#111827" stroke-width="12" stroke-linecap="round" fill="none"/>
  <path d="M270 250c-30-50-70-70-100-60" stroke="#f97316" stroke-width="22" stroke-linecap="round"/>
  <path d="M530 250c30-50 70-70 100-60" stroke="#f97316" stroke-width="22" stroke-linecap="round"/>
  <path d="M310 170l40-50 40 30" stroke="#dc2626" stroke-width="18" stroke-linecap="round" stroke-linejoin="round" fill="none"/>
  <path d="M490 170l-40-50-40 30" stroke="#dc2626" stroke-width="18" stroke-linecap="round" stroke-linejoin="round" fill="none"/>
  <text x="400" y="515" text-anchor="middle" font-size="46" font-family="Arial, sans-serif" fill="#7c2d12">Pet Paradise</text>
</svg>